<svg xmlns="http://www.w3.org/2000/svg" width="800" height="480" version="1.0" viewBox="0 0 600 360" fill='#fff' ><path fill='red' d="M248 101.5c0 .3 1.4 1.2 3 2 4 2.1 7 7.1 7 11.6 0 6.2-2.9 13.6-13.9 35.9-10.2 20.4-14.1 31-14.1 37.8 0 11.6 10.1 24.2 19.4 24.2h2.7l-3.6-3.1c-8.3-7.3-7.2-14.1 7.2-43.1 11.7-23.8 15.3-33.3 15.3-40.6 0-9.3-4.4-17.6-11.5-21.7-3.5-2-11.5-4.1-11.5-3zM270.8 108.6c8.3 9.2 14.2 23.1 14.2 33.2 0 3.8 1.2 6.2 10.3 19.7 8.6 13 10.6 15.4 12.7 15.5 2.1 0 5-3.3 17.5-19.7l15-19.7.3 22.7.2 22.7h20v-80h-19.8L325 125.4l-16.3 22.4-2.1-2.6c-1.2-1.5-8.6-11.6-16.5-22.5L275.8 103h-10l5 5.6z"/><path d="M386.3 104.7c-5.7 2-13.3 8.9-16.3 14.9-1.7 3.5-2.6 7-2.8 12.1-.6 10.3 1.6 16.3 8.7 23.4 7.8 7.8 11.6 8.9 30 8.9 16 0 19.6.9 23.4 6.2 2.5 3.3 2.6 9.8.3 13.4-3.5 5.2-5.2 5.4-48.6 5.4h-40v19.1l43.3-.3 43.2-.3 5.4-3c22.6-12.5 21-45.2-2.8-55.8-3.9-1.7-7.2-2.1-21.6-2.5l-17-.5-3.2-3.2c-4.1-4.1-5.1-9.1-2.8-13.9 3-6.2 4.7-6.6 29.2-6.6h21.8l6.3-9.5 6.2-9.5-29.2.1c-23.3 0-30.2.4-33.5 1.6zM145 156.5V209h22l.2-36.1.3-36.1 14.7 20.7 14.7 20.7 13.5-18.3c7.5-10.1 14.5-19.5 15.6-20.9 1.9-2.5 1.9-2.5 2 17 .2 18.9.2 19.4 1.8 15.5.9-2.2 5.6-12.1 10.6-22 9.6-19.3 9.3-18.2 8.7-33.6-.1-1.5-16.2-10.1-21.5-11.5-1.8-.4-3.9 2.1-15 17.8-7.1 10.1-13.6 19.1-14.4 20-1.3 1.6-2.7 0-15-18.2l-13.5-20H145v52.5zM277.2 135.2c-.2 6.7-3.8 16.4-10.3 28.4-12.4 22.7-14.4 27.4-14.4 33.6 0 4.8.4 6.1 2.7 8.5 2.6 2.7 2.9 2.8 11.7 2.5l9.1-.3v-24.7c0-20.4.3-25.5 1.7-29.2 1.9-5.2 2.4-20.3.7-22-.8-.8-1.1.1-1.2 3.2zM115.4 245c-4.2.9-5.2 1.6-7 5.2-2.1 4-1.4 11.3 1.3 14 1.1 1.1 3.6 2.3 5.5 2.7 4.2 1 10.3-.8 10.3-2.9 0-1.5-.6-1.5-6.8-.3-6 1.2-10.4-5.6-7.3-11.5.8-1.6 2.3-3.2 3.1-3.6 2.7-1 7-.7 8.3.6.9.9 1.5.9 2.4 0 2.5-2.5-4.3-5.4-9.8-4.2zM163 256c0 10.3.1 11 2 11 1.7 0 2-.7 2-4 0-3.2.4-4 1.8-4 1 0 3.6 1.8 5.7 4s4.7 4 5.8 4c1.6 0 1.4-.5-1.2-3.7l-3.1-3.8 2.5-1.8c3.2-2.4 3.4-7.8.5-10.7-1.6-1.6-3.3-2-9-2h-7v11zm13.4-6.4c1.9 1.8 1.9 2 .6 4.5-.8 1.4-2.1 1.9-5.5 1.9H167v-4c0-4 0-4 3.9-4 2.3 0 4.6.7 5.5 1.6zM219 256v11h8.1c6.9 0 8-.2 7.7-1.6-.2-1.3-1.6-1.7-6.3-1.8-5.7-.1-6-.2-6.3-2.8-.3-2.7-.2-2.7 6-3 4.8-.2 6.3-.7 6.3-1.8s-1.5-1.6-6.3-1.8c-6.2-.3-6.3-.3-6-3 .3-2.6.6-2.7 6.6-3 4.6-.2 6.2-.7 6.2-1.7 0-1.2-1.7-1.5-8-1.5h-8v11zM275 255.6c-2.8 5.8-5 10.8-5 11 0 .2.8.4 1.8.4 1.1 0 2.4-1.1 3-2.5 1-2.2 1.8-2.5 6.7-2.5 4.7 0 5.7.3 7.1 2.5 1.5 2.3 4.4 3.5 4.4 1.7 0-.4-2.1-5.3-4.7-11-6.1-13.5-6.9-13.5-13.3.4zm9-2c1.1 2.6 2 4.8 2 5 0 .2-2 .4-4.4.4h-4.5l2.2-5c1.2-2.7 2.3-5 2.4-5 .1 0 1.1 2.1 2.3 4.6zM325 246.5c0 1 1.1 1.5 3.5 1.5h3.5v9.5c0 8.8.1 9.5 2 9.5s2-.7 2-9.5V248h3.5c2.4 0 3.5-.5 3.5-1.5 0-1.2-1.7-1.5-9-1.5s-9 .3-9 1.5zM379 256c0 10.3.1 11 2 11s2-.7 2-11-.1-11-2-11-2 .7-2 11zM421 249.9c5.8 14.8 6.8 16.6 9 16.6s2.9-1.3 10.1-19.3c.8-2 .6-2.3-1.2-2-1.5.2-2.7 1.7-4 4.9-.9 2.6-2.5 6.4-3.4 8.5l-1.7 3.9-3.3-8.5c-2.5-6.7-3.7-8.6-5.4-8.8l-2.1-.3 2 5zM477 256v11h8.1c7 0 8-.2 7.7-1.7-.2-1.3-1.5-1.7-6.3-1.7-5.7-.1-6-.2-6-2.6 0-2.3.4-2.5 6-3 4.4-.4 6-.9 6-2s-1.6-1.6-6-2c-5.6-.5-6-.7-6-3 0-2.4.3-2.5 6.3-2.8 4.6-.2 6.2-.7 6.2-1.7 0-1.2-1.7-1.5-8-1.5h-8v11zM216.1 286.7c-.7 2.9-1.1 5.8-.9 6.5"/></svg>